<svg width="16" height="16" viewBox="0 0 16 16" fill="none" xmlns="http://www.w3.org/2000/svg">
<path d="M6.87134 4.81327C7.29934 3.7466 7.51334 3.2126 7.86134 3.1386C7.95276 3.11916 8.04725 3.11916 8.13867 3.1386C8.48601 3.21194 8.70067 3.74594 9.12867 4.81327C9.372 5.41994 9.49334 5.72327 9.72134 5.92994C9.78578 5.98772 9.85467 6.03883 9.928 6.08327C10.1913 6.2426 10.52 6.27194 11.1773 6.3306C12.29 6.4306 12.846 6.47994 13.016 6.79727C13.0512 6.86305 13.0751 6.93426 13.0867 7.00794C13.1433 7.36327 12.734 7.7346 11.916 8.47927L11.6893 8.68594C11.3067 9.03394 11.116 9.20794 11.0053 9.4246C10.9389 9.55487 10.8943 9.69519 10.8733 9.83994C10.8387 10.0806 10.8947 10.3333 11.0067 10.8379L11.0467 11.0179C11.2473 11.9233 11.348 12.3759 11.2227 12.5979C11.1673 12.6963 11.0878 12.7789 10.9917 12.8382C10.8956 12.8974 10.7861 12.9313 10.6733 12.9366C10.4187 12.9493 10.0593 12.6566 9.34 12.0706C8.86667 11.6846 8.63 11.4919 8.36734 11.4166C8.12728 11.3478 7.87273 11.3478 7.63267 11.4166C7.37001 11.4919 7.13267 11.6846 6.65934 12.0706C5.94067 12.6559 5.58134 12.9493 5.326 12.9373C5.21331 12.9318 5.10385 12.8977 5.00789 12.8384C4.91193 12.779 4.8326 12.6963 4.77734 12.5979C4.652 12.3759 4.75267 11.9233 4.95334 11.0179L4.99334 10.8379C5.10534 10.3333 5.16134 10.0806 5.12667 9.83994C5.10575 9.69519 5.06115 9.55487 4.99467 9.4246C4.884 9.20794 4.69334 9.03394 4.31067 8.68594L4.084 8.47927C3.266 7.73527 2.85734 7.36327 2.91334 7.00794C2.92494 6.93426 2.94883 6.86305 2.984 6.79727C3.154 6.47994 3.71067 6.4306 4.82267 6.3306C5.48 6.27194 5.80867 6.2426 6.07134 6.08394C6.14504 6.0394 6.21425 5.98782 6.278 5.92994C6.50667 5.72327 6.628 5.41994 6.87134 4.81327Z" stroke="white" stroke-width="2"/>
</svg>
