<svg width="27" height="22" viewBox="0 0 27 22" fill="none" xmlns="http://www.w3.org/2000/svg">
<path fill-rule="evenodd" clip-rule="evenodd" d="M8.003 0.329614C12.0476 0.0249768 16.1101 0.045041 20.1515 0.389613L22.5875 0.596613C23.4812 0.673039 24.3232 1.04768 24.9783 1.66032C25.6334 2.27297 26.0635 3.08806 26.1995 3.97461L26.3525 4.97811C26.873 8.37998 26.8243 11.8447 26.2085 15.2306C26.0618 16.0405 25.6352 16.7731 25.0032 17.3003C24.3712 17.8276 23.5741 18.116 22.751 18.1151H9.287C8.9765 18.1151 8.672 18.1916 8.399 18.3386L2.5325 21.4916C2.36107 21.5837 2.16868 21.6298 1.97412 21.6253C1.77956 21.6208 1.58949 21.566 1.42248 21.4661C1.25547 21.3662 1.11723 21.2246 1.02127 21.0553C0.92531 20.886 0.874913 20.6947 0.875 20.5001V7.72461C0.875386 5.85993 1.5802 4.06424 2.84828 2.69713C4.11637 1.33002 5.85411 0.492437 7.7135 0.352113L8.003 0.329614ZM8 7.75011C7.50272 7.75011 7.02581 7.94766 6.67417 8.29929C6.32254 8.65092 6.125 9.12783 6.125 9.62511C6.125 10.1224 6.32254 10.5993 6.67417 10.9509C7.02581 11.3026 7.50272 11.5001 8 11.5001C8.49728 11.5001 8.97419 11.3026 9.32582 10.9509C9.67746 10.5993 9.875 10.1224 9.875 9.62511C9.875 9.12783 9.67746 8.65092 9.32582 8.29929C8.97419 7.94766 8.49728 7.75011 8 7.75011ZM14 7.75011C13.5027 7.75011 13.0258 7.94766 12.6742 8.29929C12.3225 8.65092 12.125 9.12783 12.125 9.62511C12.125 10.1224 12.3225 10.5993 12.6742 10.9509C13.0258 11.3026 13.5027 11.5001 14 11.5001C14.4973 11.5001 14.9742 11.3026 15.3258 10.9509C15.6775 10.5993 15.875 10.1224 15.875 9.62511C15.875 9.12783 15.6775 8.65092 15.3258 8.29929C14.9742 7.94766 14.4973 7.75011 14 7.75011ZM18.125 9.62511C18.125 9.12783 18.3225 8.65092 18.6742 8.29929C19.0258 7.94766 19.5027 7.75011 20 7.75011C20.4973 7.75011 20.9742 7.94766 21.3258 8.29929C21.6775 8.65092 21.875 9.12783 21.875 9.62511C21.875 10.1224 21.6775 10.5993 21.3258 10.9509C20.9742 11.3026 20.4973 11.5001 20 11.5001C19.5027 11.5001 19.0258 11.3026 18.6742 10.9509C18.3225 10.5993 18.125 10.1224 18.125 9.62511Z" fill="#757575"/>
</svg>
