<svg width="67" height="61" viewBox="0 0 67 61" fill="none" xmlns="http://www.w3.org/2000/svg">
<path d="M61.1739 14.5238H51.9396L46.6087 8.71429H29.1304V14.5238H44.0452L49.3761 20.3333H61.1739V55.1905H14.5652V29.0476H8.73913V55.1905C8.73913 58.3857 11.3609 61 14.5652 61H61.1739C64.3783 61 67 58.3857 67 55.1905V20.3333C67 17.1381 64.3783 14.5238 61.1739 14.5238ZM23.3043 37.7619C23.3043 45.779 29.8296 52.2857 37.8696 52.2857C45.9096 52.2857 52.4348 45.779 52.4348 37.7619C52.4348 29.7448 45.9096 23.2381 37.8696 23.2381C29.8296 23.2381 23.3043 29.7448 23.3043 37.7619ZM37.8696 29.0476C42.6761 29.0476 46.6087 32.969 46.6087 37.7619C46.6087 42.5548 42.6761 46.4762 37.8696 46.4762C33.063 46.4762 29.1304 42.5548 29.1304 37.7619C29.1304 32.969 33.063 29.0476 37.8696 29.0476ZM14.5652 14.5238H23.3043V8.71429H14.5652V0H8.73913V8.71429H0V14.5238H8.73913V23.2381H14.5652V14.5238Z" fill="black"/>
</svg>
