<svg width="42" height="42" viewBox="0 0 42 42" fill="none" xmlns="http://www.w3.org/2000/svg">
<path d="M8.59491 19.1699C8.2969 19.2645 8.01516 19.432 7.77484 19.6725L7.05882 20.3892L1.6513 14.9851L8.59491 19.1699ZM8.59491 19.1699L3.03194 13.602L3.02288 13.5929L3.023 13.5928C2.27796 12.8079 2.26528 11.5428 3.03194 10.7754L10.7578 3.04273L10.7653 3.03525L10.7653 3.03533C11.1433 2.6727 11.6467 2.47017 12.1705 2.47017C12.6942 2.47017 13.1976 2.6727 13.5756 3.03533L13.5832 3.04265L13.5831 3.04273L17.495 6.95812L18.2152 6.23733C18.4678 5.98451 18.7661 5.81234 19.081 5.7208M8.59491 19.1699L19.081 5.7208M19.081 5.7208L14.9936 1.62974C13.4886 0.123419 10.8821 0.123419 9.37715 1.62974L1.6513 9.36246C0.116325 10.8988 0.116235 13.4484 1.65103 14.9849L19.081 5.7208ZM13.8303 38.9114L19.0003 33.7368L19.5155 34.2517C19.5731 34.328 19.6368 34.4014 19.7067 34.4714L20.3976 35.163L15.2322 40.3329C14.4897 41.0762 13.4829 41.5 12.424 41.5H4.69815C2.49886 41.5 0.723722 39.7239 0.723722 37.5216V29.7889C0.723722 28.7286 1.14735 27.7208 1.88993 26.9775L7.05936 21.8035L8.47155 23.2148L3.30401 28.3869C3.3034 28.3876 3.30278 28.3882 3.30217 28.3888C2.92813 28.7566 2.71419 29.2571 2.70673 29.7818L2.70668 29.7818V29.7889V37.5216C2.70668 38.6333 3.58636 39.5144 4.69815 39.5144H12.424C12.9312 39.5144 13.4561 39.3209 13.8303 38.9114ZM9.17834 22.5074L7.76616 21.0961L8.48226 20.3793C8.79228 20.0691 9.2256 19.9985 9.5917 20.1676L10.1043 20.6807C10.2735 21.0475 10.203 21.4818 9.89274 21.7923L9.17834 22.5074ZM10.6002 22.4991C10.8403 22.2588 11.0075 21.9772 11.102 21.6792L20.5267 31.1124C20.2287 31.2069 19.947 31.3744 19.7067 31.615L18.9998 32.3225L9.88567 23.2142L10.6002 22.4991ZM20.4141 32.3516C20.7412 32.0242 21.2057 31.9637 21.5836 32.1701L22.0361 32.6231C22.2053 32.9899 22.1348 33.4242 21.8246 33.7347L21.1193 34.4406L20.2808 33.6027C20.019 33.2116 20.0634 32.7026 20.4141 32.3516ZM22.532 34.4415C22.6349 34.3385 22.7244 34.228 22.8006 34.1117C22.7538 34.2667 22.6671 34.4141 22.5405 34.5409C22.4392 34.6422 22.3245 34.7168 22.2074 34.7664L22.532 34.4415ZM18.9226 6.94412C19.2718 6.59461 19.7774 6.54924 20.1673 6.808L20.3678 7.00871L19.8558 7.52114C19.5113 7.86591 19.3168 8.29581 19.2721 8.73674L18.2018 7.66554L18.9226 6.94412ZM17.495 8.37296L18.9061 9.78532L14.5461 14.1492C14.3405 14.355 14.0795 14.4504 13.8558 14.4504H13.826V14.4504L13.8199 14.4505C13.6941 14.452 13.5694 14.4272 13.4537 14.3776C13.3381 14.3279 13.2341 14.2546 13.1484 14.1624L13.1421 14.1557L13.1357 14.1492C12.7341 13.7473 12.7341 13.1381 13.1357 12.7362L17.495 8.37296ZM23.2479 35.2477C23.519 34.9763 23.6973 34.6522 23.7827 34.3115L28.3572 38.8901C29.1193 39.6528 30.4205 39.6528 31.1825 38.8901L38.9084 31.1574C39.6751 30.39 39.6624 29.1249 38.9173 28.34L38.9175 28.3399L38.9084 28.3308L34.3667 23.7851C34.6731 23.6919 34.9631 23.522 35.2095 23.2754C35.4807 23.004 35.6589 22.6799 35.7443 22.3392L40.3189 26.9178C41.8539 28.4542 41.8539 31.0041 40.3189 32.5405L32.593 40.2732C31.8505 41.0164 30.8437 41.4403 29.7848 41.4403H29.5776L29.5529 41.465C28.5686 41.4147 27.6419 40.9989 26.9467 40.3031L22.4051 35.7574C22.7105 35.6635 23.0034 35.4924 23.2479 35.2477ZM34.5021 22.5686C34.175 22.896 33.7105 22.9565 33.3326 22.7501L33.317 22.7344C33.3447 22.7353 33.3725 22.7356 33.4003 22.7353L33.8942 22.7292V22.6367C34.2069 22.5505 34.5088 22.3837 34.7619 22.1404C34.7151 22.2951 34.6285 22.4421 34.5021 22.5686ZM33.0219 21.6624C32.9439 21.629 32.8712 21.5847 32.8059 21.5312L33.1513 21.1855C33.4037 20.9329 33.5756 20.6346 33.667 20.3198L34.4175 21.0709L34.0845 21.4042C33.8789 21.61 33.6179 21.7054 33.3942 21.7054H33.1467C33.1042 21.6942 33.0625 21.6798 33.0219 21.6624ZM32.4439 20.4787L32.4327 20.4898C32.4536 20.4083 32.4853 20.3286 32.5279 20.2524C32.5691 20.2241 32.6117 20.1993 32.6552 20.1779C32.6054 20.2856 32.535 20.3875 32.4439 20.4787ZM40.3487 15.1344L35.1541 20.3336L34.4936 19.6725C34.3918 19.5706 34.2826 19.4818 34.1678 19.4061L33.743 18.981L38.9681 13.7513C39.7347 12.984 39.722 11.7189 38.977 10.9339L38.9771 10.9338L38.9681 10.9247L31.2422 3.19201L31.2423 3.19193L31.2347 3.18462C30.8567 2.82198 30.3533 2.61945 29.8295 2.61945C29.3058 2.61945 28.8024 2.82198 28.4244 3.18461L28.4244 3.18453L28.4169 3.19201L23.1925 8.42107L21.7814 7.00871L27.0064 1.77902C28.5114 0.2727 31.1179 0.2727 32.6228 1.77902L40.3487 9.51174C41.8838 11.0482 41.8838 13.598 40.3487 15.1344ZM22.4857 9.12849L21.9737 9.64092C21.5724 10.0426 20.9645 10.0426 20.5632 9.64092C20.5465 9.62419 20.5305 9.6071 20.5152 9.58969L21.0405 9.0639C21.2929 8.81131 21.4648 8.51305 21.5562 8.19822L22.4857 9.12849ZM23.1925 9.83591L25.1364 11.7816C24.8215 11.8731 24.5232 12.0453 24.2706 12.2981L23.5504 13.0189L21.4656 10.9322C21.9065 10.8876 22.3364 10.6927 22.6811 10.3477L23.1925 9.83591ZM25.6683 15.1387L24.2572 13.7263L24.978 13.0049C25.3272 12.6554 25.8328 12.61 26.2226 12.8688L26.5245 13.1709C26.7833 13.5614 26.7379 14.0681 26.3885 14.4179L25.6683 15.1387ZM23.5504 14.4337L24.9615 15.8461L20.6015 20.21C20.3959 20.4158 20.1349 20.5112 19.9112 20.5112H19.8814V20.5112L19.8753 20.5112C19.7495 20.5128 19.6248 20.4879 19.5091 20.4383C19.3935 20.3887 19.2895 20.3154 19.2038 20.2231L19.1975 20.2164L19.1911 20.21C18.7895 19.8081 18.7895 19.1989 19.1911 18.797L23.5504 14.4337ZM26.3751 15.8461L27.0959 15.1247C27.3483 14.8721 27.5202 14.5738 27.6116 14.259L31.1918 17.8424C30.8769 17.9339 30.5786 18.1061 30.326 18.3589L29.6058 19.0797L26.3751 15.8461ZM25.2465 24.8577L29.6058 20.4945L31.0169 21.9069L26.6569 26.2707C26.4513 26.4766 26.1903 26.572 25.9666 26.572H25.9368V26.5719L25.9307 26.572C25.8049 26.5735 25.6802 26.5487 25.5645 26.4991C25.4489 26.4495 25.3449 26.3762 25.2591 26.2839L25.2529 26.2772L25.2465 26.2707C24.8449 25.8688 24.8449 25.2596 25.2465 24.8577ZM30.3126 19.7871L31.0334 19.0657C31.3826 18.7162 31.8882 18.6708 32.2781 18.9296L32.3294 18.981L31.9964 19.3143C31.916 19.3948 31.8437 19.48 31.7796 19.5689C31.7416 19.6018 31.7045 19.6363 31.6683 19.6725C31.3972 19.9439 31.2189 20.268 31.1335 20.6087L30.3126 19.7871Z" fill="white" stroke="white"/>
</svg>
