<svg width="26" height="27" viewBox="0 0 26 27" fill="none" xmlns="http://www.w3.org/2000/svg">
<path d="M22.75 21.0833V22.1666H3.25V21.0833L5.41667 18.9166V12.4166C5.41667 9.05829 7.61583 6.10079 10.8333 5.14746V4.83329C10.8333 4.25866 11.0616 3.70756 11.4679 3.30123C11.8743 2.8949 12.4254 2.66663 13 2.66663C13.5746 2.66663 14.1257 2.8949 14.5321 3.30123C14.9384 3.70756 15.1667 4.25866 15.1667 4.83329V5.14746C18.3842 6.10079 20.5833 9.05829 20.5833 12.4166V18.9166L22.75 21.0833ZM15.1667 23.25C15.1667 23.8246 14.9384 24.3757 14.5321 24.782C14.1257 25.1884 13.5746 25.4166 13 25.4166C12.4254 25.4166 11.8743 25.1884 11.4679 24.782C11.0616 24.3757 10.8333 23.8246 10.8333 23.25" fill="#757575"/>
</svg>
