<svg width="16" height="16" viewBox="0 0 16 16" fill="none" xmlns="http://www.w3.org/2000/svg">
<g id="subway:delete">
<path id="Vector" d="M1.33438 14.6656C1.33438 15.4 1.93125 16 2.66875 16H13.3344C14.0688 16 14.6687 15.4031 14.6687 14.6656V6H1.33438V14.6656ZM11.3344 8H12.6687V14H11.3344V8ZM7.33437 8H8.66875V14H7.33437V8ZM3.33437 8H4.66875V14H3.33437V8ZM15.3344 2.66563H11.3344V1.33438C11.3344 0.596875 10.7344 0 10 0H6C5.26562 0 4.66563 0.596875 4.66563 1.33438V2.66875H0.665625C0.296875 2.66563 0 2.96562 0 3.33437V4C0 4.36875 0.296875 4.66563 0.665625 4.66563H15.3313C15.7 4.66563 15.9969 4.36875 15.9969 4V3.33437C16 2.96562 15.7031 2.66563 15.3344 2.66563ZM10 2.66563H6V1.33438H10V2.66563Z" fill="#FF3232"/>
</g>
</svg>
