<svg width="36" height="37" viewBox="0 0 36 37" fill="none" xmlns="http://www.w3.org/2000/svg">
<path fill-rule="evenodd" clip-rule="evenodd" d="M12.003 7.32949C16.0476 7.02485 20.1101 7.04492 24.1515 7.38949L26.5875 7.59649C27.4812 7.67292 28.3232 8.04755 28.9783 8.6602C29.6334 9.27285 30.0635 10.0879 30.1995 10.9745L30.3525 11.978C30.873 15.3799 30.8243 18.8446 30.2085 22.2305C30.0618 23.0404 29.6352 23.7729 29.0032 24.3002C28.3712 24.8275 27.5741 25.1159 26.751 25.115H13.287C12.9765 25.115 12.672 25.1915 12.399 25.3385L6.5325 28.4915C6.36107 28.5836 6.16868 28.6297 5.97412 28.6252C5.77956 28.6207 5.58949 28.5658 5.42248 28.4659C5.25547 28.366 5.11723 28.2245 5.02127 28.0552C4.92531 27.8859 4.87491 27.6946 4.875 27.5V14.7245C4.87539 12.8598 5.5802 11.0641 6.84828 9.69701C8.11637 8.3299 9.85411 7.49231 11.7135 7.35199L12.003 7.32949ZM12 14.75C11.5027 14.75 11.0258 14.9475 10.6742 15.2992C10.3225 15.6508 10.125 16.1277 10.125 16.625C10.125 17.1223 10.3225 17.5992 10.6742 17.9508C11.0258 18.3024 11.5027 18.5 12 18.5C12.4973 18.5 12.9742 18.3024 13.3258 17.9508C13.6775 17.5992 13.875 17.1223 13.875 16.625C13.875 16.1277 13.6775 15.6508 13.3258 15.2992C12.9742 14.9475 12.4973 14.75 12 14.75ZM18 14.75C17.5027 14.75 17.0258 14.9475 16.6742 15.2992C16.3225 15.6508 16.125 16.1277 16.125 16.625C16.125 17.1223 16.3225 17.5992 16.6742 17.9508C17.0258 18.3024 17.5027 18.5 18 18.5C18.4973 18.5 18.9742 18.3024 19.3258 17.9508C19.6775 17.5992 19.875 17.1223 19.875 16.625C19.875 16.1277 19.6775 15.6508 19.3258 15.2992C18.9742 14.9475 18.4973 14.75 18 14.75ZM22.125 16.625C22.125 16.1277 22.3225 15.6508 22.6742 15.2992C23.0258 14.9475 23.5027 14.75 24 14.75C24.4973 14.75 24.9742 14.9475 25.3258 15.2992C25.6775 15.6508 25.875 16.1277 25.875 16.625C25.875 17.1223 25.6775 17.5992 25.3258 17.9508C24.9742 18.3024 24.4973 18.5 24 18.5C23.5027 18.5 23.0258 18.3024 22.6742 17.9508C22.3225 17.5992 22.125 17.1223 22.125 16.625Z" fill="#757575"/>
</svg>
