<svg width="19" height="19" viewBox="0 0 19 19" fill="none" xmlns="http://www.w3.org/2000/svg">
<g id="mage:edit-fill">
<path id="Vector" d="M13.2192 17.4134H4.0359C3.71162 17.4148 3.39037 17.351 3.0912 17.2259C2.79202 17.1008 2.52101 16.9169 2.29423 16.6851C2.06578 16.455 1.88519 16.1819 1.76289 15.8816C1.6406 15.5813 1.57902 15.2597 1.58173 14.9355V5.76008C1.57769 5.4373 1.63948 5.11709 1.76335 4.81899C1.88721 4.5209 2.07054 4.25119 2.30215 4.02633C2.52749 3.79785 2.7968 3.61742 3.09381 3.49591C3.39471 3.37008 3.71767 3.30549 4.04381 3.30591H7.55881C7.71629 3.30591 7.86731 3.36847 7.97866 3.47982C8.09001 3.59117 8.15256 3.74219 8.15256 3.89966C8.15256 4.05713 8.09001 4.20816 7.97866 4.3195C7.86731 4.43085 7.71629 4.49341 7.55881 4.49341H4.04381C3.87353 4.49804 3.70512 4.53012 3.54506 4.58841C3.31179 4.68687 3.11289 4.85219 2.97341 5.06351C2.83394 5.27483 2.76014 5.52271 2.76131 5.77591V14.9513C2.75933 15.1214 2.79121 15.2902 2.85509 15.4479C2.91897 15.6055 3.01357 15.7489 3.1334 15.8697C3.2532 15.9885 3.39529 16.0826 3.55152 16.1464C3.70775 16.2103 3.87504 16.2427 4.04381 16.2417H13.2271C13.3958 16.2417 13.562 16.2101 13.718 16.1467C13.8732 16.0844 14.0135 15.99 14.1296 15.8697C14.25 15.7535 14.3444 15.6132 14.4067 15.458C14.4767 15.3011 14.5118 15.131 14.5096 14.9592V11.4442C14.5096 11.2868 14.5722 11.1357 14.6836 11.0244C14.7949 10.913 14.9459 10.8505 15.1034 10.8505C15.2609 10.8505 15.4119 10.913 15.5232 11.0244C15.6346 11.1357 15.6971 11.2868 15.6971 11.4442V14.983C15.6985 15.3073 15.6347 15.6285 15.5096 15.9277C15.3845 16.2269 15.2006 16.4979 14.9688 16.7247C14.7415 16.9528 14.4729 17.1355 14.1771 17.263C13.8708 17.3738 13.5454 17.4253 13.2192 17.4134Z" fill="#FFCF3F"/>
<path id="Vector_2" d="M17.2647 4.31926C17.184 4.11543 17.0597 3.93169 16.9005 3.78093L15.1984 2.07885C15.0477 1.91968 14.8639 1.79539 14.6601 1.71468C14.3538 1.58562 14.0158 1.55133 13.6899 1.61624C13.3639 1.68116 13.0648 1.84229 12.8314 2.07885L11.4776 3.4326V3.47218L5.3501 9.59176C5.04075 9.90324 4.86715 10.3244 4.86719 10.7634V12.4813C4.86927 12.9237 5.04593 13.3474 5.35874 13.6602C5.67156 13.973 6.09522 14.1497 6.5376 14.1518H8.25552C8.47366 14.152 8.68965 14.1088 8.89085 14.0245C9.09204 13.9402 9.27439 13.8166 9.42719 13.6609L15.5547 7.53343L16.9164 6.17176C17.0763 6.02135 17.2014 5.83768 17.2805 5.63343C17.3711 5.4304 17.4179 5.21056 17.4179 4.98822C17.4179 4.76589 17.3711 4.54605 17.2805 4.34301L17.2647 4.31926ZM16.1722 5.15052C16.1465 5.21033 16.1088 5.26422 16.0614 5.30885L15.0955 6.27468L12.7205 3.89968L13.6943 2.92593C13.7878 2.83547 13.9125 2.78445 14.0426 2.78343C14.1053 2.78448 14.1672 2.79793 14.2247 2.82301C14.2859 2.84888 14.3387 2.88582 14.383 2.93385L16.093 4.63593C16.1361 4.68243 16.1709 4.73599 16.1959 4.79427C16.2077 4.85439 16.2077 4.91622 16.1959 4.97635C16.1989 5.03538 16.1909 5.09444 16.1722 5.15052Z" fill="#FFCF3F"/>
</g>
</svg>
